<svg width="64" height="64" viewBox="0 0 64 64" fill="none" xmlns="http://www.w3.org/2000/svg"><g><path d="M17.6513 18.5836C18.6168 19.8427 19.157 20.0596 19.1613 20.0596C22.7385 20.9698 24.2315 24.3557 23.908 27.3756C23.9505 28.7835 23.7718 32.9476 20.5562 35.6318C20.4504 35.7151 20.3495 35.8046 20.2542 35.8998C20.0543 36.1422 19.5991 36.7632 19.6842 37.3502C19.8241 38.2037 19.7392 39.0789 19.4375 39.8896C19.0303 40.9861 18.2192 41.8856 17.1704 42.4034C17.9059 44.634 18.9944 46.7321 20.3945 48.6179C20.7536 49.0865 21.2878 49.3888 21.8744 49.4555C22.461 49.5221 23.0494 49.3472 23.5044 48.9709C23.9595 48.5946 24.2419 48.0495 24.2865 47.4609C24.7119 42.0545 26.3665 34.2834 32.3639 34.2834C38.3613 34.2834 40.0162 42.0545 40.4454 47.4609C40.4893 48.0493 40.7711 48.5945 41.2255 48.9707C41.68 49.347 42.2681 49.5221 42.8544 49.4555C43.4407 49.3889 43.9745 49.0865 44.3331 48.6179C45.7332 46.7322 46.8218 44.6341 47.5572 42.4034C46.5084 41.8856 45.6974 40.9861 45.2901 39.8896C44.9884 39.0789 44.9034 38.2038 45.0434 37.3502C45.1284 36.7632 44.6733 36.1422 44.4734 35.8998C44.4479 35.8742 44.3756 35.8019 44.1714 35.6318C40.9558 32.9478 40.7771 28.7835 40.8196 27.3756C40.7906 27.1073 40.7762 26.8374 40.7771 26.5675C40.7771 23.7772 42.3084 20.8889 45.5964 20.0513C45.5964 20.0471 46.1366 19.8131 47.0766 18.5838C47.9454 17.401 49.2812 16.6494 50.7432 16.5209C50.8266 15.475 50.8323 14.4242 50.7602 13.3775C50.562 11.6961 49.929 10.0956 48.9236 8.73335C47.918 7.37131 46.5747 6.29484 45.0264 5.61038C42.0617 4.29603 38.5184 5.33815 35.9323 6.53767C34.8146 7.05871 33.5966 7.32885 32.3636 7.32885C31.1304 7.32885 29.9123 7.05875 28.7949 6.53767C26.213 5.33815 22.6657 4.29607 19.7007 5.61038C18.1523 6.29484 16.809 7.37131 15.8036 8.73335C14.7982 10.0954 14.1651 11.6959 13.967 13.3775C13.8952 14.4244 13.9023 15.475 13.9882 16.5209C15.4486 16.6506 16.7828 17.4021 17.6505 18.5838L17.6513 18.5836Z"></path><path d="M57.7639 32.1969L57.7287 32.1793C57.1807 31.9064 56.5306 31.9362 56.0099 32.2578C55.4891 32.5795 55.1716 33.1475 55.1705 33.7597C55.1705 33.7758 55.1707 33.7916 55.1709 33.8072C55.2467 35.6449 55.0138 37.4824 54.4818 39.2431C54.1488 40.3742 53.4349 41.3555 52.4614 42.0207C51.6578 45.4114 50.1265 48.5872 47.9739 51.3272C47.1521 52.4141 46.0219 53.2285 44.7306 53.6639C43.4393 54.0994 42.0468 54.1359 40.7344 53.7687C39.4265 53.3976 38.2647 52.6326 37.4069 51.5778C36.5491 50.5229 36.0372 49.2295 35.9407 47.8733C35.6004 43.5092 34.3414 38.8132 32.372 38.8132C30.4154 38.8132 29.1606 43.441 28.8118 47.7794C28.6948 49.6136 27.8276 51.3187 26.414 52.4934C25.0004 53.6682 23.1654 54.2089 21.3406 53.988C19.516 53.7674 17.8629 52.8048 16.77 51.3269C14.6232 48.566 13.08 45.3851 12.24 41.9905C11.2881 41.3253 10.5906 40.3564 10.2621 39.2427C9.73176 37.483 9.49891 35.6473 9.57296 33.8109L9.57331 33.762V33.7622C9.57296 33.1495 9.25554 32.5806 8.73449 32.2583C8.21345 31.936 7.56283 31.9062 7.01448 32.1793L6.97904 32.1968V32.197C6.68465 32.3432 6.4369 32.5689 6.2639 32.8485C6.09074 33.1282 5.99947 33.4506 6 33.7793V51.3438C6 53.3743 6.80656 55.3217 8.24251 56.7575C9.67841 58.1934 11.6258 59 13.6562 59H51.0872C53.1177 59 55.0652 58.1934 56.5009 56.7575C57.9368 55.3216 58.7434 53.3741 58.7434 51.3438V33.7789C58.7439 33.4499 58.6525 33.1274 58.4793 32.8477C58.3061 32.5679 58.0582 32.3423 57.7635 32.1961L57.7639 32.1969Z"></path><path d="M11.7249 28.4001C13.0465 30.58 12.9664 33.9299 12.9664 33.9299H12.9662C12.9043 35.3981 13.0902 36.8664 13.5159 38.2729C13.6136 38.6249 13.825 38.9349 14.1173 39.154C14.4097 39.3732 14.7663 39.4895 15.1317 39.4845C15.3802 39.4861 15.6228 39.4092 15.825 39.2645C16.0273 39.1201 16.1784 38.9154 16.2573 38.6797C16.3486 38.4121 16.3699 38.1256 16.3192 37.8476C16.0414 35.9703 17.0283 34.4568 17.6406 33.7218C17.8636 33.4661 18.1094 33.2311 18.3751 33.0198C20.8161 30.9841 20.4951 27.2377 20.4951 27.2377C20.4951 27.2377 21.0158 24.0403 18.2925 23.3491C17.0439 23.0322 15.8625 21.8433 14.9494 20.6488C14.0145 19.4259 12.4584 19.7539 11.8847 21.321L11.4003 22.6442C10.9893 23.7312 10.8378 24.8991 10.958 26.0548C11.042 26.8827 11.3036 27.6825 11.7248 28.4001L11.7249 28.4001Z"></path><path d="M49.7848 20.6488C48.8715 21.8434 47.6903 23.0322 46.4417 23.3491C43.7185 24.0403 44.239 27.2377 44.239 27.2377C44.239 27.2377 43.9181 30.984 46.3592 33.0198H46.359C46.6245 33.2311 46.8704 33.4661 47.0935 33.7218C47.7058 34.4566 48.6927 35.9704 48.4149 37.8476C48.3643 38.1257 48.3855 38.4121 48.4768 38.6797C48.5555 38.9154 48.7068 39.1201 48.9091 39.2646C49.1113 39.4092 49.3539 39.4861 49.6024 39.4845C49.9676 39.4895 50.3244 39.3732 50.6166 39.154C50.9091 38.9349 51.1205 38.625 51.2182 38.273C51.6439 36.8665 51.8298 35.3981 51.7679 33.9299C51.7679 33.9299 51.6878 30.5803 53.0094 28.4001C53.4305 27.6825 53.6921 26.8827 53.7761 26.0549C53.8962 24.8991 53.7447 23.7312 53.3335 22.6442L52.8492 21.321C52.2756 19.754 50.7195 19.4259 49.7847 20.6488L49.7848 20.6488Z"></path></g></svg>